<mxfile host="app.diagrams.net" agent="Mozilla/5.0 (Windows NT 10.0; Win64; x64) AppleWebKit/537.36 (KHTML, like Gecko) Chrome/140.0.0.0 Safari/537.36" version="28.1.2">
  <diagram name="Страница — 1" id="xytsJgDae2wV7F1EpPq8">
    <mxGraphModel dx="1426" dy="751" grid="1" gridSize="10" guides="1" tooltips="1" connect="1" arrows="1" fold="1" page="1" pageScale="1" pageWidth="827" pageHeight="1169" math="0" shadow="0">
      <root>
        <mxCell id="0" />
        <mxCell id="1" parent="0" />
        <mxCell id="cMyIoj7QKiAY2Stkn8VK-30" style="edgeStyle=orthogonalEdgeStyle;rounded=0;orthogonalLoop=1;jettySize=auto;html=1;exitX=0;exitY=1;exitDx=0;exitDy=0;entryX=1;entryY=0;entryDx=0;entryDy=0;endArrow=none;endFill=0;" edge="1" parent="1" source="cMyIoj7QKiAY2Stkn8VK-1" target="cMyIoj7QKiAY2Stkn8VK-21">
          <mxGeometry relative="1" as="geometry" />
        </mxCell>
        <mxCell id="cMyIoj7QKiAY2Stkn8VK-31" style="edgeStyle=orthogonalEdgeStyle;rounded=0;orthogonalLoop=1;jettySize=auto;html=1;exitX=0.25;exitY=1;exitDx=0;exitDy=0;endArrow=none;endFill=0;" edge="1" parent="1" source="cMyIoj7QKiAY2Stkn8VK-1" target="cMyIoj7QKiAY2Stkn8VK-24">
          <mxGeometry relative="1" as="geometry" />
        </mxCell>
        <mxCell id="cMyIoj7QKiAY2Stkn8VK-32" style="edgeStyle=orthogonalEdgeStyle;rounded=0;orthogonalLoop=1;jettySize=auto;html=1;exitX=0.75;exitY=1;exitDx=0;exitDy=0;entryX=0.5;entryY=0;entryDx=0;entryDy=0;endArrow=none;endFill=0;" edge="1" parent="1" source="cMyIoj7QKiAY2Stkn8VK-1" target="cMyIoj7QKiAY2Stkn8VK-25">
          <mxGeometry relative="1" as="geometry" />
        </mxCell>
        <mxCell id="cMyIoj7QKiAY2Stkn8VK-33" style="edgeStyle=orthogonalEdgeStyle;rounded=0;orthogonalLoop=1;jettySize=auto;html=1;exitX=1;exitY=0.5;exitDx=0;exitDy=0;entryX=0.5;entryY=0;entryDx=0;entryDy=0;endArrow=none;endFill=0;" edge="1" parent="1" source="cMyIoj7QKiAY2Stkn8VK-1" target="cMyIoj7QKiAY2Stkn8VK-78">
          <mxGeometry relative="1" as="geometry">
            <mxPoint x="311.71572875253787" y="285.85786437626894" as="targetPoint" />
          </mxGeometry>
        </mxCell>
        <mxCell id="cMyIoj7QKiAY2Stkn8VK-66" style="edgeStyle=orthogonalEdgeStyle;rounded=0;orthogonalLoop=1;jettySize=auto;html=1;exitX=0.5;exitY=1;exitDx=0;exitDy=0;entryX=0.5;entryY=0;entryDx=0;entryDy=0;endArrow=none;endFill=0;startArrow=ERone;startFill=0;" edge="1" parent="1" source="cMyIoj7QKiAY2Stkn8VK-1" target="cMyIoj7QKiAY2Stkn8VK-65">
          <mxGeometry relative="1" as="geometry" />
        </mxCell>
        <mxCell id="cMyIoj7QKiAY2Stkn8VK-1" value="Фрілансер" style="whiteSpace=wrap;html=1;align=center;fillColor=#fff2cc;strokeColor=#d6b656;" vertex="1" parent="1">
          <mxGeometry x="130" y="240" width="100" height="40" as="geometry" />
        </mxCell>
        <mxCell id="cMyIoj7QKiAY2Stkn8VK-43" style="edgeStyle=orthogonalEdgeStyle;rounded=0;orthogonalLoop=1;jettySize=auto;html=1;exitX=0.25;exitY=1;exitDx=0;exitDy=0;entryX=1;entryY=0.5;entryDx=0;entryDy=0;endArrow=none;endFill=0;" edge="1" parent="1" source="cMyIoj7QKiAY2Stkn8VK-2" target="cMyIoj7QKiAY2Stkn8VK-37">
          <mxGeometry relative="1" as="geometry" />
        </mxCell>
        <mxCell id="cMyIoj7QKiAY2Stkn8VK-44" style="edgeStyle=orthogonalEdgeStyle;rounded=0;orthogonalLoop=1;jettySize=auto;html=1;exitX=0.75;exitY=1;exitDx=0;exitDy=0;entryX=0;entryY=0.5;entryDx=0;entryDy=0;endArrow=none;endFill=0;" edge="1" parent="1" source="cMyIoj7QKiAY2Stkn8VK-2" target="cMyIoj7QKiAY2Stkn8VK-39">
          <mxGeometry relative="1" as="geometry" />
        </mxCell>
        <mxCell id="cMyIoj7QKiAY2Stkn8VK-45" style="edgeStyle=orthogonalEdgeStyle;rounded=0;orthogonalLoop=1;jettySize=auto;html=1;exitX=1;exitY=0.5;exitDx=0;exitDy=0;entryX=0;entryY=0.5;entryDx=0;entryDy=0;endArrow=none;endFill=0;" edge="1" parent="1" source="cMyIoj7QKiAY2Stkn8VK-2" target="cMyIoj7QKiAY2Stkn8VK-40">
          <mxGeometry relative="1" as="geometry" />
        </mxCell>
        <mxCell id="cMyIoj7QKiAY2Stkn8VK-46" style="edgeStyle=orthogonalEdgeStyle;rounded=0;orthogonalLoop=1;jettySize=auto;html=1;exitX=0.75;exitY=0;exitDx=0;exitDy=0;endArrow=none;endFill=0;" edge="1" parent="1" source="cMyIoj7QKiAY2Stkn8VK-2" target="cMyIoj7QKiAY2Stkn8VK-41">
          <mxGeometry relative="1" as="geometry" />
        </mxCell>
        <mxCell id="cMyIoj7QKiAY2Stkn8VK-2" value="Замовник" style="whiteSpace=wrap;html=1;align=center;fillColor=#fff2cc;strokeColor=#d6b656;" vertex="1" parent="1">
          <mxGeometry x="630" y="240" width="100" height="40" as="geometry" />
        </mxCell>
        <mxCell id="cMyIoj7QKiAY2Stkn8VK-59" style="edgeStyle=orthogonalEdgeStyle;rounded=0;orthogonalLoop=1;jettySize=auto;html=1;exitX=0.25;exitY=1;exitDx=0;exitDy=0;endArrow=none;endFill=0;" edge="1" parent="1" source="cMyIoj7QKiAY2Stkn8VK-3" target="cMyIoj7QKiAY2Stkn8VK-53">
          <mxGeometry relative="1" as="geometry" />
        </mxCell>
        <mxCell id="cMyIoj7QKiAY2Stkn8VK-60" style="edgeStyle=orthogonalEdgeStyle;rounded=0;orthogonalLoop=1;jettySize=auto;html=1;exitX=0.5;exitY=1;exitDx=0;exitDy=0;entryX=0.5;entryY=0;entryDx=0;entryDy=0;endArrow=none;endFill=0;" edge="1" parent="1" source="cMyIoj7QKiAY2Stkn8VK-3" target="cMyIoj7QKiAY2Stkn8VK-54">
          <mxGeometry relative="1" as="geometry" />
        </mxCell>
        <mxCell id="cMyIoj7QKiAY2Stkn8VK-61" style="edgeStyle=orthogonalEdgeStyle;rounded=0;orthogonalLoop=1;jettySize=auto;html=1;exitX=1;exitY=0.5;exitDx=0;exitDy=0;entryX=0.5;entryY=0;entryDx=0;entryDy=0;endArrow=none;endFill=0;" edge="1" parent="1" source="cMyIoj7QKiAY2Stkn8VK-3" target="cMyIoj7QKiAY2Stkn8VK-55">
          <mxGeometry relative="1" as="geometry" />
        </mxCell>
        <mxCell id="cMyIoj7QKiAY2Stkn8VK-69" style="edgeStyle=orthogonalEdgeStyle;rounded=0;orthogonalLoop=1;jettySize=auto;html=1;exitX=0.75;exitY=1;exitDx=0;exitDy=0;entryX=0;entryY=0;entryDx=0;entryDy=0;endArrow=none;endFill=0;" edge="1" parent="1" source="cMyIoj7QKiAY2Stkn8VK-3" target="cMyIoj7QKiAY2Stkn8VK-68">
          <mxGeometry relative="1" as="geometry" />
        </mxCell>
        <mxCell id="cMyIoj7QKiAY2Stkn8VK-3" value="Проект" style="whiteSpace=wrap;html=1;align=center;fillColor=#fff2cc;strokeColor=#d6b656;" vertex="1" parent="1">
          <mxGeometry x="390" y="430" width="100" height="40" as="geometry" />
        </mxCell>
        <mxCell id="cMyIoj7QKiAY2Stkn8VK-8" style="edgeStyle=orthogonalEdgeStyle;rounded=0;orthogonalLoop=1;jettySize=auto;html=1;exitX=1;exitY=0.5;exitDx=0;exitDy=0;endArrow=none;endFill=0;startArrow=ERmany;startFill=0;entryX=0;entryY=0.5;entryDx=0;entryDy=0;" edge="1" parent="1" source="cMyIoj7QKiAY2Stkn8VK-4" target="cMyIoj7QKiAY2Stkn8VK-9">
          <mxGeometry relative="1" as="geometry">
            <mxPoint x="510" y="160" as="targetPoint" />
          </mxGeometry>
        </mxCell>
        <mxCell id="cMyIoj7QKiAY2Stkn8VK-74" style="edgeStyle=orthogonalEdgeStyle;rounded=0;orthogonalLoop=1;jettySize=auto;html=1;exitX=1;exitY=0.25;exitDx=0;exitDy=0;entryX=0.5;entryY=1;entryDx=0;entryDy=0;endArrow=none;endFill=0;" edge="1" parent="1" source="cMyIoj7QKiAY2Stkn8VK-4" target="cMyIoj7QKiAY2Stkn8VK-75">
          <mxGeometry relative="1" as="geometry">
            <mxPoint x="507" y="160" as="targetPoint" />
          </mxGeometry>
        </mxCell>
        <mxCell id="cMyIoj7QKiAY2Stkn8VK-4" value="Платформа" style="whiteSpace=wrap;html=1;align=center;fillColor=#fff2cc;strokeColor=#d6b656;" vertex="1" parent="1">
          <mxGeometry x="364" y="170" width="96" height="40" as="geometry" />
        </mxCell>
        <mxCell id="cMyIoj7QKiAY2Stkn8VK-9" value="Зареєстрований" style="shape=rhombus;perimeter=rhombusPerimeter;whiteSpace=wrap;html=1;align=center;fillColor=#d5e8d4;strokeColor=#82b366;" vertex="1" parent="1">
          <mxGeometry x="620" y="160" width="120" height="60" as="geometry" />
        </mxCell>
        <mxCell id="cMyIoj7QKiAY2Stkn8VK-11" style="edgeStyle=orthogonalEdgeStyle;rounded=0;orthogonalLoop=1;jettySize=auto;html=1;endArrow=none;endFill=0;startArrow=ERmany;startFill=0;entryX=0.5;entryY=1;entryDx=0;entryDy=0;exitX=0.5;exitY=0;exitDx=0;exitDy=0;" edge="1" parent="1" source="cMyIoj7QKiAY2Stkn8VK-2" target="cMyIoj7QKiAY2Stkn8VK-9">
          <mxGeometry relative="1" as="geometry">
            <mxPoint x="820" y="330" as="targetPoint" />
            <mxPoint x="760" y="290" as="sourcePoint" />
          </mxGeometry>
        </mxCell>
        <mxCell id="cMyIoj7QKiAY2Stkn8VK-13" style="edgeStyle=orthogonalEdgeStyle;rounded=0;orthogonalLoop=1;jettySize=auto;html=1;exitX=0;exitY=0.5;exitDx=0;exitDy=0;endArrow=none;endFill=0;startArrow=ERmany;startFill=0;entryX=1;entryY=0.5;entryDx=0;entryDy=0;" edge="1" parent="1" target="cMyIoj7QKiAY2Stkn8VK-14" source="cMyIoj7QKiAY2Stkn8VK-4">
          <mxGeometry relative="1" as="geometry">
            <mxPoint x="140" y="160" as="targetPoint" />
            <mxPoint x="20" y="190" as="sourcePoint" />
          </mxGeometry>
        </mxCell>
        <mxCell id="cMyIoj7QKiAY2Stkn8VK-14" value="Зареєстрований" style="shape=rhombus;perimeter=rhombusPerimeter;whiteSpace=wrap;html=1;align=center;fillColor=#d5e8d4;strokeColor=#82b366;" vertex="1" parent="1">
          <mxGeometry x="120" y="160" width="120" height="60" as="geometry" />
        </mxCell>
        <mxCell id="cMyIoj7QKiAY2Stkn8VK-15" style="edgeStyle=orthogonalEdgeStyle;rounded=0;orthogonalLoop=1;jettySize=auto;html=1;endArrow=none;endFill=0;startArrow=ERmany;startFill=0;entryX=0.5;entryY=1;entryDx=0;entryDy=0;exitX=0.5;exitY=0;exitDx=0;exitDy=0;" edge="1" parent="1" target="cMyIoj7QKiAY2Stkn8VK-14" source="cMyIoj7QKiAY2Stkn8VK-1">
          <mxGeometry relative="1" as="geometry">
            <mxPoint x="270" y="330" as="targetPoint" />
            <mxPoint x="130" y="240" as="sourcePoint" />
          </mxGeometry>
        </mxCell>
        <mxCell id="cMyIoj7QKiAY2Stkn8VK-16" value="Створив" style="shape=rhombus;perimeter=rhombusPerimeter;whiteSpace=wrap;html=1;align=center;fillColor=#d5e8d4;strokeColor=#82b366;" vertex="1" parent="1">
          <mxGeometry x="620" y="350" width="120" height="60" as="geometry" />
        </mxCell>
        <mxCell id="cMyIoj7QKiAY2Stkn8VK-17" style="edgeStyle=orthogonalEdgeStyle;rounded=0;orthogonalLoop=1;jettySize=auto;html=1;exitX=0.5;exitY=0;exitDx=0;exitDy=0;endArrow=none;endFill=0;startArrow=ERmany;startFill=0;entryX=0;entryY=0.5;entryDx=0;entryDy=0;" edge="1" parent="1" source="cMyIoj7QKiAY2Stkn8VK-3" target="cMyIoj7QKiAY2Stkn8VK-16">
          <mxGeometry relative="1" as="geometry">
            <mxPoint x="840" y="390" as="targetPoint" />
            <mxPoint x="860" y="340" as="sourcePoint" />
          </mxGeometry>
        </mxCell>
        <mxCell id="cMyIoj7QKiAY2Stkn8VK-18" style="edgeStyle=orthogonalEdgeStyle;rounded=0;orthogonalLoop=1;jettySize=auto;html=1;exitX=0.5;exitY=0;exitDx=0;exitDy=0;endArrow=ERone;endFill=0;startArrow=none;startFill=0;entryX=0.5;entryY=1;entryDx=0;entryDy=0;" edge="1" parent="1" source="cMyIoj7QKiAY2Stkn8VK-16" target="cMyIoj7QKiAY2Stkn8VK-2">
          <mxGeometry relative="1" as="geometry">
            <mxPoint x="840" y="340" as="targetPoint" />
            <mxPoint x="790" y="340" as="sourcePoint" />
          </mxGeometry>
        </mxCell>
        <mxCell id="cMyIoj7QKiAY2Stkn8VK-21" value="email" style="ellipse;whiteSpace=wrap;html=1;align=center;fillColor=#f5f5f5;strokeColor=#666666;fontColor=#333333;" vertex="1" parent="1">
          <mxGeometry x="30" y="320" width="80" height="40" as="geometry" />
        </mxCell>
        <mxCell id="cMyIoj7QKiAY2Stkn8VK-22" value="Нікнейм" style="ellipse;whiteSpace=wrap;html=1;align=center;fontStyle=4;fillColor=#f5f5f5;strokeColor=#666666;fontColor=#333333;" vertex="1" parent="1">
          <mxGeometry y="270" width="80" height="40" as="geometry" />
        </mxCell>
        <mxCell id="cMyIoj7QKiAY2Stkn8VK-24" value="Ім&#39;я,&lt;br&gt;Прізвище" style="ellipse;whiteSpace=wrap;html=1;align=center;fillColor=#f5f5f5;strokeColor=#666666;fontColor=#333333;" vertex="1" parent="1">
          <mxGeometry x="90" y="360" width="80" height="40" as="geometry" />
        </mxCell>
        <mxCell id="cMyIoj7QKiAY2Stkn8VK-25" value="Пароль" style="ellipse;whiteSpace=wrap;html=1;align=center;fillColor=#f5f5f5;strokeColor=#666666;fontColor=#333333;" vertex="1" parent="1">
          <mxGeometry x="200" y="330" width="80" height="40" as="geometry" />
        </mxCell>
        <mxCell id="cMyIoj7QKiAY2Stkn8VK-29" style="edgeStyle=orthogonalEdgeStyle;rounded=0;orthogonalLoop=1;jettySize=auto;html=1;exitX=0;exitY=0.5;exitDx=0;exitDy=0;entryX=0.95;entryY=0.325;entryDx=0;entryDy=0;entryPerimeter=0;endArrow=none;endFill=0;" edge="1" parent="1" source="cMyIoj7QKiAY2Stkn8VK-1" target="cMyIoj7QKiAY2Stkn8VK-22">
          <mxGeometry relative="1" as="geometry" />
        </mxCell>
        <mxCell id="cMyIoj7QKiAY2Stkn8VK-49" style="edgeStyle=orthogonalEdgeStyle;rounded=0;orthogonalLoop=1;jettySize=auto;html=1;exitX=0.5;exitY=1;exitDx=0;exitDy=0;entryX=0.5;entryY=0;entryDx=0;entryDy=0;endArrow=none;endFill=0;" edge="1" parent="1" source="cMyIoj7QKiAY2Stkn8VK-63" target="cMyIoj7QKiAY2Stkn8VK-4">
          <mxGeometry relative="1" as="geometry">
            <mxPoint x="414" y="140" as="sourcePoint" />
          </mxGeometry>
        </mxCell>
        <mxCell id="cMyIoj7QKiAY2Stkn8VK-48" style="edgeStyle=orthogonalEdgeStyle;rounded=0;orthogonalLoop=1;jettySize=auto;html=1;exitX=0.5;exitY=1;exitDx=0;exitDy=0;entryX=0;entryY=0.25;entryDx=0;entryDy=0;endArrow=none;endFill=0;" edge="1" parent="1" source="cMyIoj7QKiAY2Stkn8VK-35" target="cMyIoj7QKiAY2Stkn8VK-4">
          <mxGeometry relative="1" as="geometry" />
        </mxCell>
        <mxCell id="cMyIoj7QKiAY2Stkn8VK-35" value="Назва" style="ellipse;whiteSpace=wrap;html=1;align=center;fontStyle=4;fillColor=#f5f5f5;strokeColor=#666666;fontColor=#333333;" vertex="1" parent="1">
          <mxGeometry x="284" y="120" width="80" height="40" as="geometry" />
        </mxCell>
        <mxCell id="cMyIoj7QKiAY2Stkn8VK-37" value="email" style="ellipse;whiteSpace=wrap;html=1;align=center;fillColor=#f5f5f5;strokeColor=#666666;fontColor=#333333;" vertex="1" parent="1">
          <mxGeometry x="540" y="290" width="80" height="40" as="geometry" />
        </mxCell>
        <mxCell id="cMyIoj7QKiAY2Stkn8VK-42" style="edgeStyle=orthogonalEdgeStyle;rounded=0;orthogonalLoop=1;jettySize=auto;html=1;exitX=1;exitY=0.5;exitDx=0;exitDy=0;endArrow=none;endFill=0;" edge="1" parent="1" source="cMyIoj7QKiAY2Stkn8VK-38" target="cMyIoj7QKiAY2Stkn8VK-2">
          <mxGeometry relative="1" as="geometry" />
        </mxCell>
        <mxCell id="cMyIoj7QKiAY2Stkn8VK-38" value="Нікнейм" style="ellipse;whiteSpace=wrap;html=1;align=center;fontStyle=4;fillColor=#f5f5f5;strokeColor=#666666;fontColor=#333333;" vertex="1" parent="1">
          <mxGeometry x="490" y="240" width="80" height="40" as="geometry" />
        </mxCell>
        <mxCell id="cMyIoj7QKiAY2Stkn8VK-39" value="Ім&#39;я,&lt;br&gt;Прізвище" style="ellipse;whiteSpace=wrap;html=1;align=center;fillColor=#f5f5f5;strokeColor=#666666;fontColor=#333333;" vertex="1" parent="1">
          <mxGeometry x="730" y="300" width="80" height="40" as="geometry" />
        </mxCell>
        <mxCell id="cMyIoj7QKiAY2Stkn8VK-40" value="Пароль" style="ellipse;whiteSpace=wrap;html=1;align=center;fillColor=#f5f5f5;strokeColor=#666666;fontColor=#333333;" vertex="1" parent="1">
          <mxGeometry x="790" y="250" width="80" height="40" as="geometry" />
        </mxCell>
        <mxCell id="cMyIoj7QKiAY2Stkn8VK-41" value="ID" style="ellipse;whiteSpace=wrap;html=1;align=center;fillColor=#f5f5f5;strokeColor=#666666;fontColor=#333333;" vertex="1" parent="1">
          <mxGeometry x="790" y="200" width="80" height="40" as="geometry" />
        </mxCell>
        <mxCell id="cMyIoj7QKiAY2Stkn8VK-56" style="edgeStyle=orthogonalEdgeStyle;rounded=0;orthogonalLoop=1;jettySize=auto;html=1;exitX=0.5;exitY=0;exitDx=0;exitDy=0;endArrow=none;endFill=0;entryX=0;entryY=1;entryDx=0;entryDy=0;" edge="1" parent="1" source="cMyIoj7QKiAY2Stkn8VK-52" target="cMyIoj7QKiAY2Stkn8VK-3">
          <mxGeometry relative="1" as="geometry">
            <Array as="points">
              <mxPoint x="310" y="470" />
            </Array>
          </mxGeometry>
        </mxCell>
        <mxCell id="cMyIoj7QKiAY2Stkn8VK-52" value="Назва" style="ellipse;whiteSpace=wrap;html=1;align=center;fontStyle=4;fillColor=#f5f5f5;strokeColor=#666666;fontColor=#333333;" vertex="1" parent="1">
          <mxGeometry x="270" y="480" width="80" height="40" as="geometry" />
        </mxCell>
        <mxCell id="cMyIoj7QKiAY2Stkn8VK-53" value="Дедлайн" style="ellipse;whiteSpace=wrap;html=1;align=center;fillColor=#f5f5f5;strokeColor=#666666;fontColor=#333333;" vertex="1" parent="1">
          <mxGeometry x="330" y="520" width="80" height="40" as="geometry" />
        </mxCell>
        <mxCell id="cMyIoj7QKiAY2Stkn8VK-54" value="Старт дата" style="ellipse;whiteSpace=wrap;html=1;align=center;fillColor=#f5f5f5;strokeColor=#666666;fontColor=#333333;" vertex="1" parent="1">
          <mxGeometry x="400" y="545" width="80" height="40" as="geometry" />
        </mxCell>
        <mxCell id="cMyIoj7QKiAY2Stkn8VK-55" value="Кінець дата" style="ellipse;whiteSpace=wrap;html=1;align=center;fillColor=#f5f5f5;strokeColor=#666666;fontColor=#333333;" vertex="1" parent="1">
          <mxGeometry x="510" y="470" width="80" height="40" as="geometry" />
        </mxCell>
        <mxCell id="cMyIoj7QKiAY2Stkn8VK-64" value="" style="edgeStyle=orthogonalEdgeStyle;rounded=0;orthogonalLoop=1;jettySize=auto;html=1;exitX=0.5;exitY=1;exitDx=0;exitDy=0;entryX=0.5;entryY=0;entryDx=0;entryDy=0;endArrow=none;endFill=0;" edge="1" parent="1" target="cMyIoj7QKiAY2Stkn8VK-63">
          <mxGeometry relative="1" as="geometry">
            <mxPoint x="414" y="140" as="sourcePoint" />
            <mxPoint x="414" y="170" as="targetPoint" />
          </mxGeometry>
        </mxCell>
        <mxCell id="cMyIoj7QKiAY2Stkn8VK-63" value="Дата створення" style="ellipse;whiteSpace=wrap;html=1;align=center;fillColor=#f5f5f5;strokeColor=#666666;fontColor=#333333;" vertex="1" parent="1">
          <mxGeometry x="374" y="110" width="80" height="40" as="geometry" />
        </mxCell>
        <mxCell id="cMyIoj7QKiAY2Stkn8VK-67" style="edgeStyle=orthogonalEdgeStyle;rounded=0;orthogonalLoop=1;jettySize=auto;html=1;exitX=1;exitY=0.5;exitDx=0;exitDy=0;entryX=0;entryY=0.5;entryDx=0;entryDy=0;endArrow=ERmany;endFill=0;" edge="1" parent="1" source="cMyIoj7QKiAY2Stkn8VK-65" target="cMyIoj7QKiAY2Stkn8VK-3">
          <mxGeometry relative="1" as="geometry" />
        </mxCell>
        <mxCell id="cMyIoj7QKiAY2Stkn8VK-65" value="Виконує" style="shape=rhombus;perimeter=rhombusPerimeter;whiteSpace=wrap;html=1;align=center;fillColor=#d5e8d4;strokeColor=#82b366;" vertex="1" parent="1">
          <mxGeometry x="120" y="420" width="120" height="60" as="geometry" />
        </mxCell>
        <mxCell id="cMyIoj7QKiAY2Stkn8VK-68" value="ID" style="ellipse;whiteSpace=wrap;html=1;align=center;fillColor=#f5f5f5;strokeColor=#666666;fontColor=#333333;" vertex="1" parent="1">
          <mxGeometry x="480" y="520" width="80" height="40" as="geometry" />
        </mxCell>
        <mxCell id="cMyIoj7QKiAY2Stkn8VK-75" value="ID" style="ellipse;whiteSpace=wrap;html=1;align=center;fillColor=#f5f5f5;strokeColor=#666666;fontColor=#333333;" vertex="1" parent="1">
          <mxGeometry x="470" y="120" width="80" height="40" as="geometry" />
        </mxCell>
        <mxCell id="cMyIoj7QKiAY2Stkn8VK-78" value="ID" style="ellipse;whiteSpace=wrap;html=1;align=center;fillColor=#f5f5f5;strokeColor=#666666;fontColor=#333333;" vertex="1" parent="1">
          <mxGeometry x="270" y="290" width="80" height="40" as="geometry" />
        </mxCell>
      </root>
    </mxGraphModel>
  </diagram>
</mxfile>
